HIERARCHY
ROOT Hips
{
	OFFSET -0.001795 -0.223333 0.028219
	CHANNELS 6 Xposition Yposition Zposition Zrotation Yrotation Xrotation 
	JOINT LeftUpLeg
	{
		OFFSET 0.069520 -0.091406 -0.006815
		CHANNELS 3 Zrotation Yrotation Xrotation
		JOINT LeftLeg
		{
			OFFSET 0.034277 -0.375199 -0.004496
			CHANNELS 3 Zrotation Yrotation Xrotation
			JOINT LeftFoot
			{
				OFFSET -0.013596 -0.397961 -0.043693
				CHANNELS 3 Zrotation Yrotation Xrotation
				JOINT LeftToe
				{
					OFFSET 0.026358 -0.055791 0.119288
					CHANNELS 3 Zrotation Yrotation Xrotation
					End Site
					{
						OFFSET 0.000000 0.000000 0.000000
					}
				}
			}
		}
	}
	JOINT RightUpLeg
	{
		OFFSET -0.067670 -0.090522 -0.004320
		CHANNELS 3 Zrotation Yrotation Xrotation
		JOINT RightLeg
		{
			OFFSET -0.038290 -0.382569 -0.008850
			CHANNELS 3 Zrotation Yrotation Xrotation
			JOINT RightFoot
			{
				OFFSET 0.015774 -0.398415 -0.042312
				CHANNELS 3 Zrotation Yrotation Xrotation
				JOINT RightToe
				{
					OFFSET -0.025372 -0.048144 0.123348
					CHANNELS 3 Zrotation Yrotation Xrotation
					End Site
					{
						OFFSET 0.000000 0.000000 0.000000
					}
				}
			}
		}
	}
	JOINT Spine
	{
		OFFSET -0.002533 0.108963 -0.026696
		CHANNELS 3 Zrotation Yrotation Xrotation
		JOINT Spine1
		{
			OFFSET 0.005487 0.135180 0.001092
			CHANNELS 3 Zrotation Yrotation Xrotation
			JOINT Spine2
			{
				OFFSET 0.001457 0.052922 0.025425
				CHANNELS 3 Zrotation Yrotation Xrotation
				JOINT Neck
				{
					OFFSET -0.002778 0.213870 -0.042857
					CHANNELS 3 Zrotation Yrotation Xrotation
					JOINT Head
					{
						OFFSET 0.005152 0.064970 0.051349
						CHANNELS 3 Zrotation Yrotation Xrotation
						End Site
						{
							OFFSET 0.000000 0.000000 0.000000
						}
					}
				}
				JOINT LeftShoulder
				{
					OFFSET 0.078845 0.121749 -0.034090
					CHANNELS 3 Zrotation Yrotation Xrotation
					JOINT LeftArm
					{
						OFFSET 0.090977 0.030469 -0.008868
						CHANNELS 3 Zrotation Yrotation Xrotation
						JOINT LeftForeArm
						{
							OFFSET 0.259612 -0.012772 -0.027456
							CHANNELS 3 Zrotation Yrotation Xrotation
							JOINT LeftHand
							{
								OFFSET 0.249234 0.008986 -0.001171
								CHANNELS 3 Zrotation Yrotation Xrotation
								End Site
								{
									OFFSET 0.000000 0.000000 0.000000
								}
							}
						}
					}
				}
				JOINT RightShoulder
				{
					OFFSET -0.081759 0.118833 -0.038615
					CHANNELS 3 Zrotation Yrotation Xrotation
					JOINT RightArm
					{
						OFFSET -0.096012 0.032551 -0.009143
						CHANNELS 3 Zrotation Yrotation Xrotation
						JOINT RightForeArm
						{
							OFFSET -0.253742 -0.013329 -0.021401
							CHANNELS 3 Zrotation Yrotation Xrotation
							JOINT RightHand
							{
								OFFSET -0.255298 0.007772 -0.005559
								CHANNELS 3 Zrotation Yrotation Xrotation
								End Site
								{
									OFFSET 0.000000 0.000000 0.000000
								}
							}
						}
					}
				}
			}
		}
	}
}
MOTION
Frames: 8
Frame Time: 0.050000
0.015317 0.951594 -0.152460 2.680242 -10.820613 30.565522 1.707750 -1.567141 -33.706894 0.906149 -0.069388 -0.826924 0.501765 5.839216 19.845227 0.000000 0.000000 0.000000 -13.628892 2.067691 -41.590823 2.668331 -0.032245 7.270994 -1.984667 -11.826159 16.729892 0.000000 0.000000 0.000000 6.723815 -2.542176 22.856104 5.927332 -2.402302 0.391855 7.041561 8.664820 9.234806 11.427907 -5.607074 -15.308056 0.000000 0.000000 0.000000 -9.277053 1.354161 -1.894006 -57.997698 2.793964 -8.032603 -70.472482 -41.370299 31.792336 0.000000 0.000000 0.000000 -2.744218 7.978545 3.123657 25.126237 45.971944 5.463605 -135.735060 39.636523 -67.958910 0.000000 0.000000 0.000000 
0.015173 0.952784 -0.155933 3.496322 -10.578679 31.417733 0.916263 -1.816460 -34.565016 1.244705 -0.092468 -1.090008 -0.158852 5.018740 20.024172 0.000000 0.000000 0.000000 -14.290602 1.867880 -42.389404 2.250192 0.019667 7.223478 -1.934762 -11.721458 16.998755 0.000000 0.000000 0.000000 7.356634 -2.801122 23.119945 6.185351 -2.501121 0.337569 7.012259 8.901721 9.623067 11.635814 -5.504351 -16.288256 0.000000 0.000000 0.000000 -8.832027 1.741845 -2.080960 -58.335756 2.719854 -8.105522 -73.889274 -42.560154 34.611836 0.000000 0.000000 0.000000 -4.586748 7.506131 2.924858 22.004966 45.346381 4.270014 -135.920838 35.367936 -60.528101 0.000000 0.000000 0.000000 
0.015141 0.952916 -0.159459 4.002874 -10.600507 32.111046 0.856668 -1.852568 -35.049225 0.907997 -0.029310 -1.777644 -0.467557 4.744938 20.671726 0.000000 0.000000 0.000000 -14.785916 1.747907 -42.860212 2.066161 0.034319 6.918436 -2.025666 -11.864498 16.983426 0.000000 0.000000 0.000000 7.792531 -2.993938 23.595263 6.480924 -2.614475 0.287455 6.695743 9.417021 9.711966 12.052771 -5.510966 -17.165808 0.000000 0.000000 0.000000 -9.011897 1.312528 -2.006275 -59.100560 2.232521 -8.025672 -76.463820 -44.265570 37.460474 0.000000 0.000000 0.000000 -5.955255 7.392959 2.859270 18.810339 45.370863 3.233596 -133.908474 31.801162 -51.364124 0.000000 0.000000 0.000000 
0.014983 0.952257 -0.162885 4.703976 -10.396260 32.546568 0.456880 -2.000331 -35.470416 0.835826 -0.012220 -2.002454 -0.452636 4.835264 20.629651 0.000000 0.000000 0.000000 -15.519902 1.508394 -43.644567 2.023853 0.052304 7.453681 -2.098032 -11.706725 16.034724 0.000000 0.000000 0.000000 8.850390 -3.394093 24.096855 5.916078 -2.344648 -0.594295 7.024477 9.312136 11.157857 12.481610 -5.251238 -19.829114 0.000000 0.000000 0.000000 -8.086085 1.215417 -1.821066 -60.554951 1.541151 -8.050413 -77.706909 -46.186427 40.132781 0.000000 0.000000 0.000000 -7.976417 7.426549 2.803825 17.656569 45.745612 2.854938 -131.508279 30.752935 -46.925477 0.000000 0.000000 0.000000 
0.014540 0.951056 -0.165986 4.899387 -10.590227 32.675367 0.712910 -1.924076 -35.571848 0.397714 0.021078 -1.794898 -0.061895 5.280345 20.244472 0.000000 0.000000 0.000000 -15.753771 1.483011 -44.209535 1.742433 0.112653 7.983665 -1.827251 -11.149195 15.671270 0.000000 0.000000 0.000000 9.367830 -3.565048 24.308684 5.770407 -2.289028 -0.538962 6.925244 9.815572 11.480597 12.621182 -5.154093 -20.533411 0.000000 0.000000 0.000000 -7.602328 0.807758 -1.625222 -61.291567 1.387348 -8.175361 -79.250155 -47.191634 41.944286 0.000000 0.000000 0.000000 -8.506052 8.172742 2.999821 16.828175 45.750422 2.620032 -127.220475 31.421954 -43.834670 0.000000 0.000000 0.000000 
0.013519 0.949888 -0.168525 5.278595 -10.318235 32.577736 0.875910 -1.928809 -35.679266 -0.408926 0.093861 -1.598744 0.423956 5.967746 19.886853 0.000000 0.000000 0.000000 -16.297635 1.265137 -44.514114 2.333230 0.035014 8.560649 -2.146929 -11.553175 15.093745 0.000000 0.000000 0.000000 10.019717 -3.799819 24.409666 5.597508 -2.228868 -0.447803 7.064847 10.014792 11.453721 12.700809 -5.209257 -20.339897 0.000000 0.000000 0.000000 -7.823157 0.301826 -1.466572 -61.117044 1.566027 -8.257077 -79.726616 -47.910825 42.787452 0.000000 0.000000 0.000000 -8.235599 9.143010 3.308789 18.260186 45.422307 3.095033 -123.312624 36.390650 -48.069124 0.000000 0.000000 0.000000 
0.012290 0.948722 -0.170106 5.528500 -10.025295 32.167908 0.734858 -1.994929 -35.390284 -0.199483 0.051814 -0.917752 0.360279 5.746058 19.067026 0.000000 0.000000 0.000000 -16.652936 1.089131 -44.869347 2.485483 0.046463 10.030527 -1.836270 -10.719507 14.389891 0.000000 0.000000 0.000000 10.546750 -4.010653 24.875743 5.356917 -2.116160 -1.041153 7.515862 10.331978 12.229263 13.132999 -5.199228 -21.473249 0.000000 0.000000 0.000000 -7.234858 -0.044038 -1.271881 -61.043726 1.851972 -8.520260 -80.329896 -47.744355 42.904603 0.000000 0.000000 0.000000 -8.995648 10.048184 3.501154 23.062679 44.985693 4.797514 -117.504671 42.254020 -51.251015 0.000000 0.000000 0.000000 
0.011256 0.947834 -0.170967 5.963428 -9.304847 31.535202 0.448356 -2.141673 -34.971232 -0.391738 0.062886 -0.610399 0.079028 5.336388 18.523641 0.000000 0.000000 0.000000 -17.115345 0.779225 -44.767421 2.964810 -0.017306 11.451430 -1.959639 -10.593209 13.587145 0.000000 0.000000 0.000000 11.062589 -4.229262 25.027043 5.602379 -2.245206 -0.719880 7.522301 11.063849 11.885062 13.613214 -5.399947 -21.235735 0.000000 0.000000 0.000000 -7.735823 -0.328024 -1.354829 -60.209895 2.818403 -8.928042 -80.119584 -46.268231 40.843655 0.000000 0.000000 0.000000 -7.703797 10.255345 3.618320 26.980555 44.157811 6.127009 -113.411439 48.140155 -54.930024 0.000000 0.000000 0.000000 
